<mxfile host="Electron" modified="2023-11-05T10:07:52.124Z" agent="Mozilla/5.0 (Windows NT 10.0; Win64; x64) AppleWebKit/537.36 (KHTML, like Gecko) draw.io/22.0.3 Chrome/114.0.5735.289 Electron/25.8.4 Safari/537.36" etag="n1zFAd_xxr9fexybmhMD" version="22.0.3" type="device">
  <diagram name="Page-1" id="-d-rb5_Bw2d1QYbYOq_a">
    <mxGraphModel dx="2173" dy="1425" grid="0" gridSize="10" guides="1" tooltips="1" connect="1" arrows="1" fold="1" page="0" pageScale="1" pageWidth="827" pageHeight="1169" math="0" shadow="0">
      <root>
        <mxCell id="0" />
        <mxCell id="1" parent="0" />
        <mxCell id="fAoD9zatyhQ0e6s0vgr9-2" value="Azure Cloud" style="sketch=0;outlineConnect=0;gradientColor=none;html=1;whiteSpace=wrap;fontSize=12;fontStyle=0;shape=mxgraph.aws4.group;grIcon=mxgraph.aws4.group_aws_cloud;strokeColor=#AAB7B8;fillColor=none;verticalAlign=top;align=left;spacingLeft=30;fontColor=#AAB7B8;dashed=0;" parent="1" vertex="1">
          <mxGeometry x="-200" y="-156" width="1550" height="1447" as="geometry" />
        </mxCell>
        <mxCell id="fAoD9zatyhQ0e6s0vgr9-4" value="Resource Groupe&lt;br&gt;Terraform" style="rounded=1;whiteSpace=wrap;html=1;" parent="1" vertex="1">
          <mxGeometry x="-121" y="-122.5" width="147" height="88" as="geometry" />
        </mxCell>
        <mxCell id="fAoD9zatyhQ0e6s0vgr9-5" value="Resource Groupe&lt;br&gt;MySQL DB" style="rounded=1;whiteSpace=wrap;html=1;" parent="1" vertex="1">
          <mxGeometry x="123" y="-125" width="139" height="93" as="geometry" />
        </mxCell>
        <mxCell id="fAoD9zatyhQ0e6s0vgr9-6" value="Resource Groupe&lt;br&gt;Container Registry" style="rounded=1;whiteSpace=wrap;html=1;" parent="1" vertex="1">
          <mxGeometry x="333" y="-123.25" width="139" height="89.5" as="geometry" />
        </mxCell>
        <mxCell id="fAoD9zatyhQ0e6s0vgr9-7" value="Resource Groupe&lt;br&gt;AKS" style="rounded=1;whiteSpace=wrap;html=1;labelPosition=center;verticalLabelPosition=top;align=center;verticalAlign=bottom;" parent="1" vertex="1">
          <mxGeometry x="-164" y="50" width="1351" height="1207" as="geometry" />
        </mxCell>
        <mxCell id="fAoD9zatyhQ0e6s0vgr9-8" value="" style="rounded=1;whiteSpace=wrap;html=1;labelPosition=center;verticalLabelPosition=top;align=center;verticalAlign=bottom;" parent="1" vertex="1">
          <mxGeometry x="-129" y="82" width="1249" height="1131" as="geometry" />
        </mxCell>
        <mxCell id="fAoD9zatyhQ0e6s0vgr9-102" style="edgeStyle=orthogonalEdgeStyle;rounded=0;orthogonalLoop=1;jettySize=auto;html=1;" parent="1" source="fAoD9zatyhQ0e6s0vgr9-22" target="fAoD9zatyhQ0e6s0vgr9-63" edge="1">
          <mxGeometry relative="1" as="geometry" />
        </mxCell>
        <mxCell id="-qkOVi1x4gIQ-deEZo_T-11" style="edgeStyle=orthogonalEdgeStyle;rounded=0;orthogonalLoop=1;jettySize=auto;html=1;" edge="1" parent="1" source="fAoD9zatyhQ0e6s0vgr9-22" target="-qkOVi1x4gIQ-deEZo_T-1">
          <mxGeometry relative="1" as="geometry">
            <Array as="points">
              <mxPoint x="230" y="466" />
              <mxPoint x="776" y="466" />
            </Array>
          </mxGeometry>
        </mxCell>
        <mxCell id="-qkOVi1x4gIQ-deEZo_T-14" style="edgeStyle=orthogonalEdgeStyle;rounded=0;orthogonalLoop=1;jettySize=auto;html=1;" edge="1" parent="1" source="fAoD9zatyhQ0e6s0vgr9-22" target="fAoD9zatyhQ0e6s0vgr9-6">
          <mxGeometry relative="1" as="geometry">
            <Array as="points">
              <mxPoint x="608" y="257" />
              <mxPoint x="608" y="-78" />
            </Array>
          </mxGeometry>
        </mxCell>
        <mxCell id="fAoD9zatyhQ0e6s0vgr9-22" value="" style="rounded=1;whiteSpace=wrap;html=1;" parent="1" vertex="1">
          <mxGeometry x="112" y="108" width="235" height="297" as="geometry" />
        </mxCell>
        <mxCell id="fAoD9zatyhQ0e6s0vgr9-23" value="Node Master" style="sketch=0;html=1;dashed=0;whitespace=wrap;fillColor=#2875E2;strokeColor=#ffffff;points=[[0.005,0.63,0],[0.1,0.2,0],[0.9,0.2,0],[0.5,0,0],[0.995,0.63,0],[0.72,0.99,0],[0.5,1,0],[0.28,0.99,0]];verticalLabelPosition=bottom;align=center;verticalAlign=top;shape=mxgraph.kubernetes.icon;prIcon=master" parent="1" vertex="1">
          <mxGeometry x="137" y="91" width="50" height="48" as="geometry" />
        </mxCell>
        <mxCell id="fAoD9zatyhQ0e6s0vgr9-38" value="Kubernetes API" style="sketch=0;html=1;dashed=0;whitespace=wrap;fillColor=#2875E2;strokeColor=#ffffff;points=[[0.005,0.63,0],[0.1,0.2,0],[0.9,0.2,0],[0.5,0,0],[0.995,0.63,0],[0.72,0.99,0],[0.5,1,0],[0.28,0.99,0]];verticalLabelPosition=bottom;align=center;verticalAlign=top;shape=mxgraph.kubernetes.icon;prIcon=api" parent="1" vertex="1">
          <mxGeometry x="260" y="163" width="50" height="48" as="geometry" />
        </mxCell>
        <mxCell id="fAoD9zatyhQ0e6s0vgr9-39" value="Kubelet" style="sketch=0;html=1;dashed=0;whitespace=wrap;fillColor=#2875E2;strokeColor=#ffffff;points=[[0.005,0.63,0],[0.1,0.2,0],[0.9,0.2,0],[0.5,0,0],[0.995,0.63,0],[0.72,0.99,0],[0.5,1,0],[0.28,0.99,0]];verticalLabelPosition=bottom;align=center;verticalAlign=top;shape=mxgraph.kubernetes.icon;prIcon=kubelet" parent="1" vertex="1">
          <mxGeometry x="278" y="334" width="50" height="48" as="geometry" />
        </mxCell>
        <mxCell id="fAoD9zatyhQ0e6s0vgr9-45" value="AKS" style="image;aspect=fixed;html=1;points=[];align=center;fontSize=12;image=img/lib/azure2/compute/Kubernetes_Services.svg;" parent="1" vertex="1">
          <mxGeometry x="-67.5" y="71" width="68" height="60" as="geometry" />
        </mxCell>
        <mxCell id="fAoD9zatyhQ0e6s0vgr9-49" value="etcd" style="sketch=0;html=1;dashed=0;whitespace=wrap;fillColor=#2875E2;strokeColor=#ffffff;points=[[0.005,0.63,0],[0.1,0.2,0],[0.9,0.2,0],[0.5,0,0],[0.995,0.63,0],[0.72,0.99,0],[0.5,1,0],[0.28,0.99,0]];verticalLabelPosition=bottom;align=center;verticalAlign=top;shape=mxgraph.kubernetes.icon;prIcon=etcd" parent="1" vertex="1">
          <mxGeometry x="137.5" y="332" width="50" height="48" as="geometry" />
        </mxCell>
        <mxCell id="fAoD9zatyhQ0e6s0vgr9-51" value="Shedule" style="sketch=0;html=1;dashed=0;whitespace=wrap;fillColor=#2875E2;strokeColor=#ffffff;points=[[0.005,0.63,0],[0.1,0.2,0],[0.9,0.2,0],[0.5,0,0],[0.995,0.63,0],[0.72,0.99,0],[0.5,1,0],[0.28,0.99,0]];verticalLabelPosition=bottom;align=center;verticalAlign=top;shape=mxgraph.kubernetes.icon;prIcon=sched" parent="1" vertex="1">
          <mxGeometry x="162" y="166" width="50" height="48" as="geometry" />
        </mxCell>
        <mxCell id="fAoD9zatyhQ0e6s0vgr9-57" value="Ingress" style="sketch=0;html=1;dashed=0;whitespace=wrap;fillColor=#2875E2;strokeColor=#ffffff;points=[[0.005,0.63,0],[0.1,0.2,0],[0.9,0.2,0],[0.5,0,0],[0.995,0.63,0],[0.72,0.99,0],[0.5,1,0],[0.28,0.99,0]];verticalLabelPosition=top;align=center;verticalAlign=bottom;shape=mxgraph.kubernetes.icon;prIcon=ing;labelPosition=center;" parent="1" vertex="1">
          <mxGeometry x="1028" y="382" width="50" height="48" as="geometry" />
        </mxCell>
        <mxCell id="fAoD9zatyhQ0e6s0vgr9-60" value="Control Manager" style="sketch=0;html=1;dashed=0;whitespace=wrap;fillColor=#2875E2;strokeColor=#ffffff;points=[[0.005,0.63,0],[0.1,0.2,0],[0.9,0.2,0],[0.5,0,0],[0.995,0.63,0],[0.72,0.99,0],[0.5,1,0],[0.28,0.99,0]];verticalLabelPosition=bottom;align=center;verticalAlign=top;shape=mxgraph.kubernetes.icon;prIcon=cm" parent="1" vertex="1">
          <mxGeometry x="202.5" y="250" width="50" height="48" as="geometry" />
        </mxCell>
        <mxCell id="fAoD9zatyhQ0e6s0vgr9-61" style="edgeStyle=orthogonalEdgeStyle;rounded=0;orthogonalLoop=1;jettySize=auto;html=1;exitX=0.5;exitY=1;exitDx=0;exitDy=0;exitPerimeter=0;" parent="1" source="fAoD9zatyhQ0e6s0vgr9-39" target="fAoD9zatyhQ0e6s0vgr9-39" edge="1">
          <mxGeometry relative="1" as="geometry" />
        </mxCell>
        <mxCell id="fAoD9zatyhQ0e6s0vgr9-63" value="" style="rounded=1;whiteSpace=wrap;html=1;" parent="1" vertex="1">
          <mxGeometry x="-90" y="527" width="447" height="602" as="geometry" />
        </mxCell>
        <mxCell id="fAoD9zatyhQ0e6s0vgr9-64" value="Node Worker" style="sketch=0;html=1;dashed=0;whitespace=wrap;fillColor=#2875E2;strokeColor=#ffffff;points=[[0.005,0.63,0],[0.1,0.2,0],[0.9,0.2,0],[0.5,0,0],[0.995,0.63,0],[0.72,0.99,0],[0.5,1,0],[0.28,0.99,0]];verticalLabelPosition=bottom;align=center;verticalAlign=top;shape=mxgraph.kubernetes.icon;prIcon=node" parent="1" vertex="1">
          <mxGeometry x="-63" y="505" width="50" height="48" as="geometry" />
        </mxCell>
        <mxCell id="fAoD9zatyhQ0e6s0vgr9-65" value="" style="rounded=1;whiteSpace=wrap;html=1;" parent="1" vertex="1">
          <mxGeometry x="42.5" y="961" width="184" height="142" as="geometry" />
        </mxCell>
        <mxCell id="fAoD9zatyhQ0e6s0vgr9-66" value="SampleApp&lt;br&gt;Container" style="image;aspect=fixed;html=1;points=[];align=center;fontSize=12;image=img/lib/azure2/containers/Container_Instances.svg;" parent="1" vertex="1">
          <mxGeometry x="107.5" y="985" width="64" height="69" as="geometry" />
        </mxCell>
        <mxCell id="fAoD9zatyhQ0e6s0vgr9-67" value="Pod" style="sketch=0;html=1;dashed=0;whitespace=wrap;fillColor=#2875E2;strokeColor=#ffffff;points=[[0.005,0.63,0],[0.1,0.2,0],[0.9,0.2,0],[0.5,0,0],[0.995,0.63,0],[0.72,0.99,0],[0.5,1,0],[0.28,0.99,0]];verticalLabelPosition=bottom;align=center;verticalAlign=top;shape=mxgraph.kubernetes.icon;prIcon=pod" parent="1" vertex="1">
          <mxGeometry x="51.5" y="934" width="50" height="48" as="geometry" />
        </mxCell>
        <mxCell id="fAoD9zatyhQ0e6s0vgr9-68" value="Kubelet" style="sketch=0;html=1;dashed=0;whitespace=wrap;fillColor=#2875E2;strokeColor=#ffffff;points=[[0.005,0.63,0],[0.1,0.2,0],[0.9,0.2,0],[0.5,0,0],[0.995,0.63,0],[0.72,0.99,0],[0.5,1,0],[0.28,0.99,0]];verticalLabelPosition=bottom;align=center;verticalAlign=top;shape=mxgraph.kubernetes.icon;prIcon=kubelet" parent="1" vertex="1">
          <mxGeometry x="269" y="560" width="50" height="48" as="geometry" />
        </mxCell>
        <mxCell id="fAoD9zatyhQ0e6s0vgr9-69" value="&lt;br&gt;&lt;br&gt;&lt;br&gt;&lt;br&gt;&lt;br&gt;APP_KEY=****&lt;br&gt;MYSQL_ATTR_SSL_CA=****&lt;br&gt;&lt;div style=&quot;&quot;&gt;DB_HOST=****&lt;/div&gt;&lt;div style=&quot;&quot;&gt;DB_CONNECTION=****&lt;/div&gt;&lt;div style=&quot;&quot;&gt;DB_PORT=****&lt;br&gt;&lt;/div&gt;&lt;div style=&quot;&quot;&gt;DB_DATABASE=****&lt;/div&gt;DB_USERNAME = *****&lt;br&gt;DB_PASSWORD = *****" style="rounded=1;whiteSpace=wrap;html=1;align=left;" parent="1" vertex="1">
          <mxGeometry x="-75" y="685" width="415" height="214" as="geometry" />
        </mxCell>
        <mxCell id="fAoD9zatyhQ0e6s0vgr9-73" value="Secrets" style="sketch=0;html=1;dashed=0;whitespace=wrap;fillColor=#2875E2;strokeColor=#ffffff;points=[[0.005,0.63,0],[0.1,0.2,0],[0.9,0.2,0],[0.5,0,0],[0.995,0.63,0],[0.72,0.99,0],[0.5,1,0],[0.28,0.99,0]];verticalLabelPosition=bottom;align=center;verticalAlign=top;shape=mxgraph.kubernetes.icon;prIcon=secret" parent="1" vertex="1">
          <mxGeometry x="-57" y="667" width="50" height="48" as="geometry" />
        </mxCell>
        <mxCell id="fAoD9zatyhQ0e6s0vgr9-96" value="Public IP" style="image;aspect=fixed;html=1;points=[];align=center;fontSize=12;image=img/lib/azure2/networking/Public_IP_Addresses_Classic.svg;" parent="1" vertex="1">
          <mxGeometry x="1236" y="387" width="64" height="52" as="geometry" />
        </mxCell>
        <mxCell id="fAoD9zatyhQ0e6s0vgr9-97" style="edgeStyle=orthogonalEdgeStyle;rounded=0;orthogonalLoop=1;jettySize=auto;html=1;entryX=0.995;entryY=0.63;entryDx=0;entryDy=0;entryPerimeter=0;" parent="1" source="fAoD9zatyhQ0e6s0vgr9-96" target="fAoD9zatyhQ0e6s0vgr9-57" edge="1">
          <mxGeometry relative="1" as="geometry" />
        </mxCell>
        <mxCell id="fAoD9zatyhQ0e6s0vgr9-101" style="edgeStyle=orthogonalEdgeStyle;rounded=0;orthogonalLoop=1;jettySize=auto;html=1;" parent="1" source="fAoD9zatyhQ0e6s0vgr9-100" target="fAoD9zatyhQ0e6s0vgr9-96" edge="1">
          <mxGeometry relative="1" as="geometry" />
        </mxCell>
        <mxCell id="fAoD9zatyhQ0e6s0vgr9-100" value="Users" style="points=[[0.35,0,0],[0.98,0.51,0],[1,0.71,0],[0.67,1,0],[0,0.795,0],[0,0.65,0]];verticalLabelPosition=bottom;sketch=0;html=1;verticalAlign=top;aspect=fixed;align=center;pointerEvents=1;shape=mxgraph.cisco19.user;fillColor=#005073;strokeColor=none;" parent="1" vertex="1">
          <mxGeometry x="1516" y="387" width="50" height="50" as="geometry" />
        </mxCell>
        <mxCell id="fAoD9zatyhQ0e6s0vgr9-71" value="&lt;div style=&quot;font-family: Consolas, &amp;quot;Courier New&amp;quot;, monospace; line-height: 19px; font-size: 11px;&quot;&gt;&lt;div style=&quot;&quot;&gt;&lt;br&gt;&lt;/div&gt;&lt;div style=&quot;&quot;&gt;&lt;span style=&quot;background-color: rgb(51, 51, 51);&quot;&gt;&lt;font style=&quot;font-size: 11px;&quot; color=&quot;#ffffff&quot;&gt;&lt;br&gt;&lt;/font&gt;&lt;/span&gt;&lt;/div&gt;&lt;div style=&quot;&quot;&gt;&lt;span style=&quot;background-color: rgb(51, 51, 51);&quot;&gt;&lt;font style=&quot;font-size: 11px;&quot; color=&quot;#ffffff&quot;&gt;&lt;br&gt;&lt;/font&gt;&lt;/span&gt;&lt;/div&gt;&lt;div style=&quot;&quot;&gt;&lt;span style=&quot;background-color: rgb(51, 51, 51);&quot;&gt;&lt;font style=&quot;font-size: 11px;&quot; color=&quot;#ffffff&quot;&gt;APP_DEBUG=false&lt;/font&gt;&lt;/span&gt;&lt;/div&gt;&lt;div style=&quot;&quot;&gt;&lt;span style=&quot;background-color: rgb(51, 51, 51);&quot;&gt;&lt;font style=&quot;font-size: 11px;&quot; color=&quot;#ffffff&quot;&gt;APP_ENV=production&lt;/font&gt;&lt;/span&gt;&lt;/div&gt;&lt;div style=&quot;&quot;&gt;&lt;br&gt;&lt;/div&gt;&lt;/div&gt;" style="rounded=1;whiteSpace=wrap;html=1;align=left;" parent="1" vertex="1">
          <mxGeometry x="69" y="558" width="131" height="82" as="geometry" />
        </mxCell>
        <mxCell id="fAoD9zatyhQ0e6s0vgr9-72" value="ConfigMap" style="sketch=0;html=1;dashed=0;whitespace=wrap;fillColor=#2875E2;strokeColor=#ffffff;points=[[0.005,0.63,0],[0.1,0.2,0],[0.9,0.2,0],[0.5,0,0],[0.995,0.63,0],[0.72,0.99,0],[0.5,1,0],[0.28,0.99,0]];verticalLabelPosition=bottom;align=center;verticalAlign=top;shape=mxgraph.kubernetes.icon;prIcon=c_m" parent="1" vertex="1">
          <mxGeometry x="87" y="539" width="50" height="32.39506172839506" as="geometry" />
        </mxCell>
        <mxCell id="-qkOVi1x4gIQ-deEZo_T-1" value="" style="rounded=1;whiteSpace=wrap;html=1;" vertex="1" parent="1">
          <mxGeometry x="544" y="525" width="447" height="602" as="geometry" />
        </mxCell>
        <mxCell id="-qkOVi1x4gIQ-deEZo_T-2" value="Node Worker" style="sketch=0;html=1;dashed=0;whitespace=wrap;fillColor=#2875E2;strokeColor=#ffffff;points=[[0.005,0.63,0],[0.1,0.2,0],[0.9,0.2,0],[0.5,0,0],[0.995,0.63,0],[0.72,0.99,0],[0.5,1,0],[0.28,0.99,0]];verticalLabelPosition=bottom;align=center;verticalAlign=top;shape=mxgraph.kubernetes.icon;prIcon=node" vertex="1" parent="1">
          <mxGeometry x="571" y="503" width="50" height="48" as="geometry" />
        </mxCell>
        <mxCell id="-qkOVi1x4gIQ-deEZo_T-3" value="" style="rounded=1;whiteSpace=wrap;html=1;" vertex="1" parent="1">
          <mxGeometry x="676.5" y="959" width="184" height="142" as="geometry" />
        </mxCell>
        <mxCell id="-qkOVi1x4gIQ-deEZo_T-4" value="SampleApp&lt;br&gt;Container" style="image;aspect=fixed;html=1;points=[];align=center;fontSize=12;image=img/lib/azure2/containers/Container_Instances.svg;" vertex="1" parent="1">
          <mxGeometry x="741.5" y="983" width="64" height="69" as="geometry" />
        </mxCell>
        <mxCell id="-qkOVi1x4gIQ-deEZo_T-5" value="Pod" style="sketch=0;html=1;dashed=0;whitespace=wrap;fillColor=#2875E2;strokeColor=#ffffff;points=[[0.005,0.63,0],[0.1,0.2,0],[0.9,0.2,0],[0.5,0,0],[0.995,0.63,0],[0.72,0.99,0],[0.5,1,0],[0.28,0.99,0]];verticalLabelPosition=bottom;align=center;verticalAlign=top;shape=mxgraph.kubernetes.icon;prIcon=pod" vertex="1" parent="1">
          <mxGeometry x="685.5" y="932" width="50" height="48" as="geometry" />
        </mxCell>
        <mxCell id="-qkOVi1x4gIQ-deEZo_T-6" value="Kubelet" style="sketch=0;html=1;dashed=0;whitespace=wrap;fillColor=#2875E2;strokeColor=#ffffff;points=[[0.005,0.63,0],[0.1,0.2,0],[0.9,0.2,0],[0.5,0,0],[0.995,0.63,0],[0.72,0.99,0],[0.5,1,0],[0.28,0.99,0]];verticalLabelPosition=bottom;align=center;verticalAlign=top;shape=mxgraph.kubernetes.icon;prIcon=kubelet" vertex="1" parent="1">
          <mxGeometry x="903" y="558" width="50" height="48" as="geometry" />
        </mxCell>
        <mxCell id="-qkOVi1x4gIQ-deEZo_T-7" value="&lt;br&gt;&lt;br&gt;&lt;br&gt;&lt;br&gt;&lt;br&gt;APP_KEY=****&lt;br&gt;MYSQL_ATTR_SSL_CA=****&lt;br&gt;&lt;div style=&quot;&quot;&gt;DB_HOST=****&lt;/div&gt;&lt;div style=&quot;&quot;&gt;DB_CONNECTION=****&lt;/div&gt;&lt;div style=&quot;&quot;&gt;DB_PORT=****&lt;br&gt;&lt;/div&gt;&lt;div style=&quot;&quot;&gt;DB_DATABASE=****&lt;/div&gt;DB_USERNAME = *****&lt;br&gt;DB_PASSWORD = *****" style="rounded=1;whiteSpace=wrap;html=1;align=left;" vertex="1" parent="1">
          <mxGeometry x="559" y="683" width="415" height="214" as="geometry" />
        </mxCell>
        <mxCell id="-qkOVi1x4gIQ-deEZo_T-8" value="Secrets" style="sketch=0;html=1;dashed=0;whitespace=wrap;fillColor=#2875E2;strokeColor=#ffffff;points=[[0.005,0.63,0],[0.1,0.2,0],[0.9,0.2,0],[0.5,0,0],[0.995,0.63,0],[0.72,0.99,0],[0.5,1,0],[0.28,0.99,0]];verticalLabelPosition=bottom;align=center;verticalAlign=top;shape=mxgraph.kubernetes.icon;prIcon=secret" vertex="1" parent="1">
          <mxGeometry x="577" y="665" width="50" height="48" as="geometry" />
        </mxCell>
        <mxCell id="-qkOVi1x4gIQ-deEZo_T-9" value="&lt;div style=&quot;font-family: Consolas, &amp;quot;Courier New&amp;quot;, monospace; line-height: 19px; font-size: 11px;&quot;&gt;&lt;div style=&quot;&quot;&gt;&lt;br&gt;&lt;/div&gt;&lt;div style=&quot;&quot;&gt;&lt;span style=&quot;background-color: rgb(51, 51, 51);&quot;&gt;&lt;font style=&quot;font-size: 11px;&quot; color=&quot;#ffffff&quot;&gt;&lt;br&gt;&lt;/font&gt;&lt;/span&gt;&lt;/div&gt;&lt;div style=&quot;&quot;&gt;&lt;span style=&quot;background-color: rgb(51, 51, 51);&quot;&gt;&lt;font style=&quot;font-size: 11px;&quot; color=&quot;#ffffff&quot;&gt;&lt;br&gt;&lt;/font&gt;&lt;/span&gt;&lt;/div&gt;&lt;div style=&quot;&quot;&gt;&lt;span style=&quot;background-color: rgb(51, 51, 51);&quot;&gt;&lt;font style=&quot;font-size: 11px;&quot; color=&quot;#ffffff&quot;&gt;APP_DEBUG=false&lt;/font&gt;&lt;/span&gt;&lt;/div&gt;&lt;div style=&quot;&quot;&gt;&lt;span style=&quot;background-color: rgb(51, 51, 51);&quot;&gt;&lt;font style=&quot;font-size: 11px;&quot; color=&quot;#ffffff&quot;&gt;APP_ENV=production&lt;/font&gt;&lt;/span&gt;&lt;/div&gt;&lt;div style=&quot;&quot;&gt;&lt;br&gt;&lt;/div&gt;&lt;/div&gt;" style="rounded=1;whiteSpace=wrap;html=1;align=left;" vertex="1" parent="1">
          <mxGeometry x="703" y="556" width="131" height="82" as="geometry" />
        </mxCell>
        <mxCell id="-qkOVi1x4gIQ-deEZo_T-10" value="ConfigMap" style="sketch=0;html=1;dashed=0;whitespace=wrap;fillColor=#2875E2;strokeColor=#ffffff;points=[[0.005,0.63,0],[0.1,0.2,0],[0.9,0.2,0],[0.5,0,0],[0.995,0.63,0],[0.72,0.99,0],[0.5,1,0],[0.28,0.99,0]];verticalLabelPosition=bottom;align=center;verticalAlign=top;shape=mxgraph.kubernetes.icon;prIcon=c_m" vertex="1" parent="1">
          <mxGeometry x="721" y="537" width="50" height="32.39506172839506" as="geometry" />
        </mxCell>
        <mxCell id="-qkOVi1x4gIQ-deEZo_T-12" style="edgeStyle=orthogonalEdgeStyle;rounded=0;orthogonalLoop=1;jettySize=auto;html=1;" edge="1" parent="1" source="fAoD9zatyhQ0e6s0vgr9-57" target="-qkOVi1x4gIQ-deEZo_T-4">
          <mxGeometry relative="1" as="geometry">
            <Array as="points">
              <mxPoint x="1053" y="1018" />
            </Array>
          </mxGeometry>
        </mxCell>
        <mxCell id="-qkOVi1x4gIQ-deEZo_T-13" style="edgeStyle=orthogonalEdgeStyle;rounded=0;orthogonalLoop=1;jettySize=auto;html=1;" edge="1" parent="1" source="fAoD9zatyhQ0e6s0vgr9-57" target="fAoD9zatyhQ0e6s0vgr9-66">
          <mxGeometry relative="1" as="geometry">
            <Array as="points">
              <mxPoint x="1053" y="1160" />
              <mxPoint x="455" y="1160" />
              <mxPoint x="455" y="1019" />
            </Array>
          </mxGeometry>
        </mxCell>
      </root>
    </mxGraphModel>
  </diagram>
</mxfile>
